
开始渲染 7 个剪辑...
输出目录: clips/恋爱综艺，匹配到心动男友

渲染剪辑: 恋爱综艺，匹配到心动男友_第1集0秒_第1集47秒.mp4
  起始: 第1集0秒
  结束: 第1集47秒
  时长: 47.940秒
  跨集: 否
  片段数: 1
    1. 第1集 0.000-47.940秒
  ffmpeg version 8.0 Copyright (c) 2000-2025 the FFmpeg developers  built with Apple clang version 17.0.0 (clang-1700.0.13.3)  configuration: --prefix=/opt/homebrew/Cellar/ffmpeg/8.0_1 --enable-shared --enable-pthreads --enable  libavutil      60.  8.100 / 60.  8.100  libavcodec     62. 11.100 / 62. 11.100  libavformat    62.  3.100 / 62.  3.100  libavdevice    62.  1.100 / 62.  1.100  libavfilter    11.  4.100 / 11.  4.100  libswscale      9.  1.100 /  9.  1.100  libswresample   6.  1.100 /  6.  1.100  Input #0, mov,mp4,m4a,3gp,3g2,mj2, from '新的漫剧素材/恋爱综艺，匹配到心动男友/1.mp4':  Metadata:  major_brand     : isom  minor_version   : 512  compatible_brands: isomiso2avc1mp41  comment         : vid:v02d0fg10004d6h67gfog65i427m9br0  encoder         : Lavf58.76.100  Duration: 00:04:49.11, start: 0.000000, bitrate: 442 kb/s  Stream #0:0[0x1](und): Audio: aac (LC) (mp4a / 0x6134706D), 44100 Hz, stereo, fltp, 128 kb/s (defaul  Metadata:  handler_name    : SoundHandler  vendor_id       : [0][0][0][0]  Stream #0:1[0x2](und): Video: h264 (High) (avc1 / 0x31637661), yuv420p(tv, bt709, progressive), 640x  Metadata:  handler_name    : VideoHandler  vendor_id       : [0][0][0][0]  Stream mapping:  Stream #0:1 -> #0:0 (copy)  Stream #0:0 -> #0:1 (copy)  Output #0, mp4, to 'clips/恋爱综艺，匹配到心动男友/恋爱综艺，匹配到心动男友_第1集0秒_第1集47秒.mp4':  Metadata:  major_brand     : isom  minor_version   : 512  compatible_brands: isomiso2avc1mp41  comment         : vid:v02d0fg10004d6h67gfog65i427m9br0  encoder         : Lavf62.3.100  Stream #0:0(und): Video: h264 (High) (avc1 / 0x31637661), yuv420p(tv, bt709, progressive), 640x360 [  Metadata:  handler_name    : VideoHandler  vendor_id       : [0][0][0][0]  Stream #0:1(und): Audio: aac (LC) (mp4a / 0x6134706D), 44100 Hz, stereo, fltp, 128 kb/s (default)  Metadata:  handler_name    : SoundHandler  vendor_id       : [0][0][0][0]  Press [q] to stop, [?] for help  [mp4 @ 0x9cf063700] Starting second pass: moving the moov atom to the beginning of the file  [out#0/mp4 @ 0x9cf094300] video:2043KiB audio:751KiB subtitle:0KiB other streams:0KiB global headers  frame= 1441 fps=0.0 q=-1.0 Lsize=    2846KiB time=00:00:47.97 bitrate= 486.0kbits/s speed=3.91e+03x   ✅ 输出: clips/恋爱综艺，匹配到心动男友/恋爱综艺，匹配到心动男友_第1集0秒_第1集47秒.mp4
  ❌ 渲染失败: name 'progress' is not defined

渲染剪辑: 恋爱综艺，匹配到心动男友_第1集0秒_第1集1分15秒.mp4
  起始: 第1集0秒
  结束: 第1集1分15秒
  时长: 75.700秒
  跨集: 否
  片段数: 1
    1. 第1集 0.000-75.700秒
  ffmpeg version 8.0 Copyright (c) 2000-2025 the FFmpeg developers  built with Apple clang version 17.0.0 (clang-1700.0.13.3)  configuration: --prefix=/opt/homebrew/Cellar/ffmpeg/8.0_1 --enable-shared --enable-pthreads --enable  libavutil      60.  8.100 / 60.  8.100  libavcodec     62. 11.100 / 62. 11.100  libavformat    62.  3.100 / 62.  3.100  libavdevice    62.  1.100 / 62.  1.100  libavfilter    11.  4.100 / 11.  4.100  libswscale      9.  1.100 /  9.  1.100  libswresample   6.  1.100 /  6.  1.100  Input #0, mov,mp4,m4a,3gp,3g2,mj2, from '新的漫剧素材/恋爱综艺，匹配到心动男友/1.mp4':  Metadata:  major_brand     : isom  minor_version   : 512  compatible_brands: isomiso2avc1mp41  comment         : vid:v02d0fg10004d6h67gfog65i427m9br0  encoder         : Lavf58.76.100  Duration: 00:04:49.11, start: 0.000000, bitrate: 442 kb/s  Stream #0:0[0x1](und): Audio: aac (LC) (mp4a / 0x6134706D), 44100 Hz, stereo, fltp, 128 kb/s (defaul  Metadata:  handler_name    : SoundHandler  vendor_id       : [0][0][0][0]  Stream #0:1[0x2](und): Video: h264 (High) (avc1 / 0x31637661), yuv420p(tv, bt709, progressive), 640x  Metadata:  handler_name    : VideoHandler  vendor_id       : [0][0][0][0]  Stream mapping:  Stream #0:1 -> #0:0 (copy)  Stream #0:0 -> #0:1 (copy)  Output #0, mp4, to 'clips/恋爱综艺，匹配到心动男友/恋爱综艺，匹配到心动男友_第1集0秒_第1集1分15秒.mp4':  Metadata:  major_brand     : isom  minor_version   : 512  compatible_brands: isomiso2avc1mp41  comment         : vid:v02d0fg10004d6h67gfog65i427m9br0  encoder         : Lavf62.3.100  Stream #0:0(und): Video: h264 (High) (avc1 / 0x31637661), yuv420p(tv, bt709, progressive), 640x360 [  Metadata:  handler_name    : VideoHandler  vendor_id       : [0][0][0][0]  Stream #0:1(und): Audio: aac (LC) (mp4a / 0x6134706D), 44100 Hz, stereo, fltp, 128 kb/s (default)  Metadata:  handler_name    : SoundHandler  vendor_id       : [0][0][0][0]  Press [q] to stop, [?] for help  [mp4 @ 0xba0833700] Starting second pass: moving the moov atom to the beginning of the file  [out#0/mp4 @ 0xba083c300] video:2823KiB audio:1184KiB subtitle:0KiB other streams:0KiB global header  frame= 2273 fps=0.0 q=-1.0 Lsize=    4089KiB time=00:01:15.80 bitrate= 441.9kbits/s speed=3.05e+03x   ✅ 输出: clips/恋爱综艺，匹配到心动男友/恋爱综艺，匹配到心动男友_第1集0秒_第1集1分15秒.mp4
  ❌ 渲染失败: name 'progress' is not defined

渲染剪辑: 恋爱综艺，匹配到心动男友_第1集0秒_第2集1分16秒.mp4
  起始: 第1集0秒
  结束: 第2集1分16秒
  时长: 365.460秒
  跨集: 是
  片段数: 2
    1. 第1集 0.000-289.000秒
    2. 第2集 0.000-76.460秒
  ffmpeg version 8.0 Copyright (c) 2000-2025 the FFmpeg developers  built with Apple clang version 17.0.0 (clang-1700.0.13.3)  configuration: --prefix=/opt/homebrew/Cellar/ffmpeg/8.0_1 --enable-shared --enable-pthreads --enable  libavutil      60.  8.100 / 60.  8.100  libavcodec     62. 11.100 / 62. 11.100  libavformat    62.  3.100 / 62.  3.100  libavdevice    62.  1.100 / 62.  1.100  libavfilter    11.  4.100 / 11.  4.100  libswscale      9.  1.100 /  9.  1.100  libswresample   6.  1.100 /  6.  1.100  Input #0, mov,mp4,m4a,3gp,3g2,mj2, from '新的漫剧素材/恋爱综艺，匹配到心动男友/1.mp4':  Metadata:  major_brand     : isom  minor_version   : 512  compatible_brands: isomiso2avc1mp41  comment         : vid:v02d0fg10004d6h67gfog65i427m9br0  encoder         : Lavf58.76.100  Duration: 00:04:49.11, start: 0.000000, bitrate: 442 kb/s  Stream #0:0[0x1](und): Audio: aac (LC) (mp4a / 0x6134706D), 44100 Hz, stereo, fltp, 128 kb/s (defaul  Metadata:  handler_name    : SoundHandler  vendor_id       : [0][0][0][0]  Stream #0:1[0x2](und): Video: h264 (High) (avc1 / 0x31637661), yuv420p(tv, bt709, progressive), 640x  Metadata:  handler_name    : VideoHandler  vendor_id       : [0][0][0][0]  Stream mapping:  Stream #0:1 -> #0:0 (copy)  Stream #0:0 -> #0:1 (copy)  Output #0, mp4, to 'clips/恋爱综艺，匹配到心动男友/temp/segment_0.mp4':  Metadata:  major_brand     : isom  minor_version   : 512  compatible_brands: isomiso2avc1mp41  comment         : vid:v02d0fg10004d6h67gfog65i427m9br0  encoder         : Lavf62.3.100  Stream #0:0(und): Video: h264 (High) (avc1 / 0x31637661), yuv420p(tv, bt709, progressive), 640x360 [  Metadata:  handler_name    : VideoHandler  vendor_id       : [0][0][0][0]  Stream #0:1(und): Audio: aac (LC) (mp4a / 0x6134706D), 44100 Hz, stereo, fltp, 128 kb/s (default)  Metadata:  handler_name    : SoundHandler  vendor_id       : [0][0][0][0]  Press [q] to stop, [?] for help  [mp4 @ 0x7e301f700] Starting second pass: moving the moov atom to the beginning of the file  [out#0/mp4 @ 0x7e30089c0] video:10805KiB audio:4517KiB subtitle:0KiB other streams:0KiB global heade  frame= 8672 fps=0.0 q=-1.0 Lsize=   15629KiB time=00:04:49.03 bitrate= 443.0kbits/s speed=2.76e+03x   ffmpeg version 8.0 Copyright (c) 2000-2025 the FFmpeg developers  built with Apple clang version 17.0.0 (clang-1700.0.13.3)  configuration: --prefix=/opt/homebrew/Cellar/ffmpeg/8.0_1 --enable-shared --enable-pthreads --enable  libavutil      60.  8.100 / 60.  8.100  libavcodec     62. 11.100 / 62. 11.100  libavformat    62.  3.100 / 62.  3.100  libavdevice    62.  1.100 / 62.  1.100  libavfilter    11.  4.100 / 11.  4.100  libswscale      9.  1.100 /  9.  1.100  libswresample   6.  1.100 /  6.  1.100  Input #0, mov,mp4,m4a,3gp,3g2,mj2, from '新的漫剧素材/恋爱综艺，匹配到心动男友/2.mp4':  Metadata:  major_brand     : isom  minor_version   : 512  compatible_brands: isomiso2avc1mp41  comment         : vid:v02d0fg10004d6h67ifog65l1538v4g0  encoder         : Lavf58.76.100  Duration: 00:01:04.09, start: 0.000000, bitrate: 466 kb/s  Stream #0:0[0x1](und): Audio: aac (LC) (mp4a / 0x6134706D), 44100 Hz, stereo, fltp, 128 kb/s (defaul  Metadata:  handler_name    : SoundHandler  vendor_id       : [0][0][0][0]  Stream #0:1[0x2](und): Video: h264 (High) (avc1 / 0x31637661), yuv420p(tv, bt709, progressive), 640x  Metadata:  handler_name    : VideoHandler  vendor_id       : [0][0][0][0]  Stream mapping:  Stream #0:1 -> #0:0 (copy)  Stream #0:0 -> #0:1 (copy)  Output #0, mp4, to 'clips/恋爱综艺，匹配到心动男友/temp/segment_1.mp4':  Metadata:  major_brand     : isom  minor_version   : 512  compatible_brands: isomiso2avc1mp41  comment         : vid:v02d0fg10004d6h67ifog65l1538v4g0  encoder         : Lavf62.3.100  Stream #0:0(und): Video: h264 (High) (avc1 / 0x31637661), yuv420p(tv, bt709, progressive), 640x360 [  Metadata:  handler_name    : VideoHandler  vendor_id       : [0][0][0][0]  Stream #0:1(und): Audio: aac (LC) (mp4a / 0x6134706D), 44100 Hz, stereo, fltp, 128 kb/s (default)  Metadata:  handler_name    : SoundHandler  vendor_id       : [0][0][0][0]  Press [q] to stop, [?] for help  [mp4 @ 0x76cc1f700] Starting second pass: moving the moov atom to the beginning of the file  [out#0/mp4 @ 0x76d030300] video:2581KiB audio:1002KiB subtitle:0KiB other streams:0KiB global header  frame= 1922 fps=0.0 q=-1.0 Lsize=    3652KiB time=00:01:04.00 bitrate= 467.5kbits/s speed=3.31e+03x 进度: [3/7] 50.0%进度: [3/7] 100.0%  ✅ 输出: clips/恋爱综艺，匹配到心动男友/恋爱综艺，匹配到心动男友_第1集0秒_第2集1分16秒.mp4
  ❌ 渲染失败: name 'progress' is not defined

渲染剪辑: 恋爱综艺，匹配到心动男友_第1集0秒_第3集40秒.mp4
  起始: 第1集0秒
  结束: 第3集40秒
  时长: 393.740秒
  跨集: 是
  片段数: 3
    1. 第1集 0.000-289.000秒
    2. 第2集 0.000-64.000秒
    3. 第3集 0.000-40.740秒
  ffmpeg version 8.0 Copyright (c) 2000-2025 the FFmpeg developers  built with Apple clang version 17.0.0 (clang-1700.0.13.3)  configuration: --prefix=/opt/homebrew/Cellar/ffmpeg/8.0_1 --enable-shared --enable-pthreads --enable  libavutil      60.  8.100 / 60.  8.100  libavcodec     62. 11.100 / 62. 11.100  libavformat    62.  3.100 / 62.  3.100  libavdevice    62.  1.100 / 62.  1.100  libavfilter    11.  4.100 / 11.  4.100  libswscale      9.  1.100 /  9.  1.100  libswresample   6.  1.100 /  6.  1.100  Input #0, mov,mp4,m4a,3gp,3g2,mj2, from '新的漫剧素材/恋爱综艺，匹配到心动男友/1.mp4':  Metadata:  major_brand     : isom  minor_version   : 512  compatible_brands: isomiso2avc1mp41  comment         : vid:v02d0fg10004d6h67gfog65i427m9br0  encoder         : Lavf58.76.100  Duration: 00:04:49.11, start: 0.000000, bitrate: 442 kb/s  Stream #0:0[0x1](und): Audio: aac (LC) (mp4a / 0x6134706D), 44100 Hz, stereo, fltp, 128 kb/s (defaul  Metadata:  handler_name    : SoundHandler  vendor_id       : [0][0][0][0]  Stream #0:1[0x2](und): Video: h264 (High) (avc1 / 0x31637661), yuv420p(tv, bt709, progressive), 640x  Metadata:  handler_name    : VideoHandler  vendor_id       : [0][0][0][0]  Stream mapping:  Stream #0:1 -> #0:0 (copy)  Stream #0:0 -> #0:1 (copy)  Output #0, mp4, to 'clips/恋爱综艺，匹配到心动男友/temp/segment_0.mp4':  Metadata:  major_brand     : isom  minor_version   : 512  compatible_brands: isomiso2avc1mp41  comment         : vid:v02d0fg10004d6h67gfog65i427m9br0  encoder         : Lavf62.3.100  Stream #0:0(und): Video: h264 (High) (avc1 / 0x31637661), yuv420p(tv, bt709, progressive), 640x360 [  Metadata:  handler_name    : VideoHandler  vendor_id       : [0][0][0][0]  Stream #0:1(und): Audio: aac (LC) (mp4a / 0x6134706D), 44100 Hz, stereo, fltp, 128 kb/s (default)  Metadata:  handler_name    : SoundHandler  vendor_id       : [0][0][0][0]  Press [q] to stop, [?] for help  [mp4 @ 0xaeb027700] Starting second pass: moving the moov atom to the beginning of the file  [out#0/mp4 @ 0xaeb078300] video:10805KiB audio:4517KiB subtitle:0KiB other streams:0KiB global heade  frame= 8672 fps=0.0 q=-1.0 Lsize=   15629KiB time=00:04:49.03 bitrate= 443.0kbits/s speed=3.42e+03x   ffmpeg version 8.0 Copyright (c) 2000-2025 the FFmpeg developers  built with Apple clang version 17.0.0 (clang-1700.0.13.3)  configuration: --prefix=/opt/homebrew/Cellar/ffmpeg/8.0_1 --enable-shared --enable-pthreads --enable  libavutil      60.  8.100 / 60.  8.100  libavcodec     62. 11.100 / 62. 11.100  libavformat    62.  3.100 / 62.  3.100  libavdevice    62.  1.100 / 62.  1.100  libavfilter    11.  4.100 / 11.  4.100  libswscale      9.  1.100 /  9.  1.100  libswresample   6.  1.100 /  6.  1.100  Input #0, mov,mp4,m4a,3gp,3g2,mj2, from '新的漫剧素材/恋爱综艺，匹配到心动男友/2.mp4':  Metadata:  major_brand     : isom  minor_version   : 512  compatible_brands: isomiso2avc1mp41  comment         : vid:v02d0fg10004d6h67ifog65l1538v4g0  encoder         : Lavf58.76.100  Duration: 00:01:04.09, start: 0.000000, bitrate: 466 kb/s  Stream #0:0[0x1](und): Audio: aac (LC) (mp4a / 0x6134706D), 44100 Hz, stereo, fltp, 128 kb/s (defaul  Metadata:  handler_name    : SoundHandler  vendor_id       : [0][0][0][0]  Stream #0:1[0x2](und): Video: h264 (High) (avc1 / 0x31637661), yuv420p(tv, bt709, progressive), 640x  Metadata:  handler_name    : VideoHandler  vendor_id       : [0][0][0][0]  Stream mapping:  Stream #0:1 -> #0:0 (copy)  Stream #0:0 -> #0:1 (copy)  Output #0, mp4, to 'clips/恋爱综艺，匹配到心动男友/temp/segment_1.mp4':  Metadata:  major_brand     : isom  minor_version   : 512  compatible_brands: isomiso2avc1mp41  comment         : vid:v02d0fg10004d6h67ifog65l1538v4g0  encoder         : Lavf62.3.100  Stream #0:0(und): Video: h264 (High) (avc1 / 0x31637661), yuv420p(tv, bt709, progressive), 640x360 [  Metadata:  handler_name    : VideoHandler  vendor_id       : [0][0][0][0]  Stream #0:1(und): Audio: aac (LC) (mp4a / 0x6134706D), 44100 Hz, stereo, fltp, 128 kb/s (default)  Metadata:  handler_name    : SoundHandler  vendor_id       : [0][0][0][0]  Press [q] to stop, [?] for help  [mp4 @ 0xaf703f700] Starting second pass: moving the moov atom to the beginning of the file  [out#0/mp4 @ 0xaf7035c80] video:2581KiB audio:1002KiB subtitle:0KiB other streams:0KiB global header  frame= 1922 fps=0.0 q=-1.0 Lsize=    3652KiB time=00:01:04.00 bitrate= 467.4kbits/s speed=4.6e+03x e  ffmpeg version 8.0 Copyright (c) 2000-2025 the FFmpeg developers  built with Apple clang version 17.0.0 (clang-1700.0.13.3)  configuration: --prefix=/opt/homebrew/Cellar/ffmpeg/8.0_1 --enable-shared --enable-pthreads --enable  libavutil      60.  8.100 / 60.  8.100  libavcodec     62. 11.100 / 62. 11.100  libavformat    62.  3.100 / 62.  3.100  libavdevice    62.  1.100 / 62.  1.100  libavfilter    11.  4.100 / 11.  4.100  libswscale      9.  1.100 /  9.  1.100  libswresample   6.  1.100 /  6.  1.100  Input #0, mov,mp4,m4a,3gp,3g2,mj2, from '新的漫剧素材/恋爱综艺，匹配到心动男友/3.mp4':  Metadata:  major_brand     : isom  minor_version   : 512  compatible_brands: isomiso2avc1mp41  comment         : vid:v02d0fg10004d6h67hnog65mco037f9g  encoder         : Lavf58.76.100  Duration: 00:01:23.94, start: 0.000000, bitrate: 504 kb/s  Stream #0:0[0x1](und): Audio: aac (LC) (mp4a / 0x6134706D), 44100 Hz, stereo, fltp, 128 kb/s (defaul  Metadata:  handler_name    : SoundHandler  vendor_id       : [0][0][0][0]  Stream #0:1[0x2](und): Video: h264 (High) (avc1 / 0x31637661), yuv420p(tv, bt709, progressive), 640x  Metadata:  handler_name    : VideoHandler  vendor_id       : [0][0][0][0]  Stream mapping:  Stream #0:1 -> #0:0 (copy)  Stream #0:0 -> #0:1 (copy)  Output #0, mp4, to 'clips/恋爱综艺，匹配到心动男友/temp/segment_2.mp4':  Metadata:  major_brand     : isom  minor_version   : 512  compatible_brands: isomiso2avc1mp41  comment         : vid:v02d0fg10004d6h67hnog65mco037f9g  encoder         : Lavf62.3.100  Stream #0:0(und): Video: h264 (High) (avc1 / 0x31637661), yuv420p(tv, bt709, progressive), 640x360 [  Metadata:  handler_name    : VideoHandler  vendor_id       : [0][0][0][0]  Stream #0:1(und): Audio: aac (LC) (mp4a / 0x6134706D), 44100 Hz, stereo, fltp, 128 kb/s (default)  Metadata:  handler_name    : SoundHandler  vendor_id       : [0][0][0][0]  Press [q] to stop, [?] for help  [mp4 @ 0xb6b40b700] Starting second pass: moving the moov atom to the beginning of the file  [out#0/mp4 @ 0xb6b038e40] video:2355KiB audio:638KiB subtitle:0KiB other streams:0KiB global headers  frame= 1225 fps=0.0 q=-1.0 Lsize=    3037KiB time=00:00:40.82 bitrate= 609.4kbits/s speed=3.23e+03x 进度: [4/7] 50.0%进度: [4/7] 100.0%  ✅ 输出: clips/恋爱综艺，匹配到心动男友/恋爱综艺，匹配到心动男友_第1集0秒_第3集40秒.mp4
  ❌ 渲染失败: name 'progress' is not defined

渲染剪辑: 恋爱综艺，匹配到心动男友_第1集0秒_第3集1分36秒.mp4
  起始: 第1集0秒
  结束: 第3集1分36秒
  时长: 449.820秒
  跨集: 是
  片段数: 3
    1. 第1集 0.000-289.000秒
    2. 第2集 0.000-64.000秒
    3. 第3集 0.000-96.820秒
  ffmpeg version 8.0 Copyright (c) 2000-2025 the FFmpeg developers  built with Apple clang version 17.0.0 (clang-1700.0.13.3)  configuration: --prefix=/opt/homebrew/Cellar/ffmpeg/8.0_1 --enable-shared --enable-pthreads --enable  libavutil      60.  8.100 / 60.  8.100  libavcodec     62. 11.100 / 62. 11.100  libavformat    62.  3.100 / 62.  3.100  libavdevice    62.  1.100 / 62.  1.100  libavfilter    11.  4.100 / 11.  4.100  libswscale      9.  1.100 /  9.  1.100  libswresample   6.  1.100 /  6.  1.100  Input #0, mov,mp4,m4a,3gp,3g2,mj2, from '新的漫剧素材/恋爱综艺，匹配到心动男友/1.mp4':  Metadata:  major_brand     : isom  minor_version   : 512  compatible_brands: isomiso2avc1mp41  comment         : vid:v02d0fg10004d6h67gfog65i427m9br0  encoder         : Lavf58.76.100  Duration: 00:04:49.11, start: 0.000000, bitrate: 442 kb/s  Stream #0:0[0x1](und): Audio: aac (LC) (mp4a / 0x6134706D), 44100 Hz, stereo, fltp, 128 kb/s (defaul  Metadata:  handler_name    : SoundHandler  vendor_id       : [0][0][0][0]  Stream #0:1[0x2](und): Video: h264 (High) (avc1 / 0x31637661), yuv420p(tv, bt709, progressive), 640x  Metadata:  handler_name    : VideoHandler  vendor_id       : [0][0][0][0]  Stream mapping:  Stream #0:1 -> #0:0 (copy)  Stream #0:0 -> #0:1 (copy)  Output #0, mp4, to 'clips/恋爱综艺，匹配到心动男友/temp/segment_0.mp4':  Metadata:  major_brand     : isom  minor_version   : 512  compatible_brands: isomiso2avc1mp41  comment         : vid:v02d0fg10004d6h67gfog65i427m9br0  encoder         : Lavf62.3.100  Stream #0:0(und): Video: h264 (High) (avc1 / 0x31637661), yuv420p(tv, bt709, progressive), 640x360 [  Metadata:  handler_name    : VideoHandler  vendor_id       : [0][0][0][0]  Stream #0:1(und): Audio: aac (LC) (mp4a / 0x6134706D), 44100 Hz, stereo, fltp, 128 kb/s (default)  Metadata:  handler_name    : SoundHandler  vendor_id       : [0][0][0][0]  Press [q] to stop, [?] for help  [mp4 @ 0x886c17700] Starting second pass: moving the moov atom to the beginning of the file  [out#0/mp4 @ 0x887034300] video:10805KiB audio:4517KiB subtitle:0KiB other streams:0KiB global heade  frame= 8672 fps=0.0 q=-1.0 Lsize=   15629KiB time=00:04:49.03 bitrate= 443.0kbits/s speed=3.87e+03x   ffmpeg version 8.0 Copyright (c) 2000-2025 the FFmpeg developers  built with Apple clang version 17.0.0 (clang-1700.0.13.3)  configuration: --prefix=/opt/homebrew/Cellar/ffmpeg/8.0_1 --enable-shared --enable-pthreads --enable  libavutil      60.  8.100 / 60.  8.100  libavcodec     62. 11.100 / 62. 11.100  libavformat    62.  3.100 / 62.  3.100  libavdevice    62.  1.100 / 62.  1.100  libavfilter    11.  4.100 / 11.  4.100  libswscale      9.  1.100 /  9.  1.100  libswresample   6.  1.100 /  6.  1.100  Input #0, mov,mp4,m4a,3gp,3g2,mj2, from '新的漫剧素材/恋爱综艺，匹配到心动男友/2.mp4':  Metadata:  major_brand     : isom  minor_version   : 512  compatible_brands: isomiso2avc1mp41  comment         : vid:v02d0fg10004d6h67ifog65l1538v4g0  encoder         : Lavf58.76.100  Duration: 00:01:04.09, start: 0.000000, bitrate: 466 kb/s  Stream #0:0[0x1](und): Audio: aac (LC) (mp4a / 0x6134706D), 44100 Hz, stereo, fltp, 128 kb/s (defaul  Metadata:  handler_name    : SoundHandler  vendor_id       : [0][0][0][0]  Stream #0:1[0x2](und): Video: h264 (High) (avc1 / 0x31637661), yuv420p(tv, bt709, progressive), 640x  Metadata:  handler_name    : VideoHandler  vendor_id       : [0][0][0][0]  Stream mapping:  Stream #0:1 -> #0:0 (copy)  Stream #0:0 -> #0:1 (copy)  Output #0, mp4, to 'clips/恋爱综艺，匹配到心动男友/temp/segment_1.mp4':  Metadata:  major_brand     : isom  minor_version   : 512  compatible_brands: isomiso2avc1mp41  comment         : vid:v02d0fg10004d6h67ifog65l1538v4g0  encoder         : Lavf62.3.100  Stream #0:0(und): Video: h264 (High) (avc1 / 0x31637661), yuv420p(tv, bt709, progressive), 640x360 [  Metadata:  handler_name    : VideoHandler  vendor_id       : [0][0][0][0]  Stream #0:1(und): Audio: aac (LC) (mp4a / 0x6134706D), 44100 Hz, stereo, fltp, 128 kb/s (default)  Metadata:  handler_name    : SoundHandler  vendor_id       : [0][0][0][0]  Press [q] to stop, [?] for help  [mp4 @ 0xbb481f700] Starting second pass: moving the moov atom to the beginning of the file  [out#0/mp4 @ 0xbb5428e40] video:2581KiB audio:1002KiB subtitle:0KiB other streams:0KiB global header  frame= 1922 fps=0.0 q=-1.0 Lsize=    3652KiB time=00:01:04.00 bitrate= 467.4kbits/s speed=2.91e+03x   ffmpeg version 8.0 Copyright (c) 2000-2025 the FFmpeg developers  built with Apple clang version 17.0.0 (clang-1700.0.13.3)  configuration: --prefix=/opt/homebrew/Cellar/ffmpeg/8.0_1 --enable-shared --enable-pthreads --enable  libavutil      60.  8.100 / 60.  8.100  libavcodec     62. 11.100 / 62. 11.100  libavformat    62.  3.100 / 62.  3.100  libavdevice    62.  1.100 / 62.  1.100  libavfilter    11.  4.100 / 11.  4.100  libswscale      9.  1.100 /  9.  1.100  libswresample   6.  1.100 /  6.  1.100  Input #0, mov,mp4,m4a,3gp,3g2,mj2, from '新的漫剧素材/恋爱综艺，匹配到心动男友/3.mp4':  Metadata:  major_brand     : isom  minor_version   : 512  compatible_brands: isomiso2avc1mp41  comment         : vid:v02d0fg10004d6h67hnog65mco037f9g  encoder         : Lavf58.76.100  Duration: 00:01:23.94, start: 0.000000, bitrate: 504 kb/s  Stream #0:0[0x1](und): Audio: aac (LC) (mp4a / 0x6134706D), 44100 Hz, stereo, fltp, 128 kb/s (defaul  Metadata:  handler_name    : SoundHandler  vendor_id       : [0][0][0][0]  Stream #0:1[0x2](und): Video: h264 (High) (avc1 / 0x31637661), yuv420p(tv, bt709, progressive), 640x  Metadata:  handler_name    : VideoHandler  vendor_id       : [0][0][0][0]  Stream mapping:  Stream #0:1 -> #0:0 (copy)  Stream #0:0 -> #0:1 (copy)  Output #0, mp4, to 'clips/恋爱综艺，匹配到心动男友/temp/segment_2.mp4':  Metadata:  major_brand     : isom  minor_version   : 512  compatible_brands: isomiso2avc1mp41  comment         : vid:v02d0fg10004d6h67hnog65mco037f9g  encoder         : Lavf62.3.100  Stream #0:0(und): Video: h264 (High) (avc1 / 0x31637661), yuv420p(tv, bt709, progressive), 640x360 [  Metadata:  handler_name    : VideoHandler  vendor_id       : [0][0][0][0]  Stream #0:1(und): Audio: aac (LC) (mp4a / 0x6134706D), 44100 Hz, stereo, fltp, 128 kb/s (default)  Metadata:  handler_name    : SoundHandler  vendor_id       : [0][0][0][0]  Press [q] to stop, [?] for help  [mp4 @ 0xaa280b700] Starting second pass: moving the moov atom to the beginning of the file  [out#0/mp4 @ 0xaa3064300] video:3763KiB audio:1313KiB subtitle:0KiB other streams:0KiB global header  frame= 2518 fps=0.0 q=-1.0 Lsize=    5165KiB time=00:01:23.86 bitrate= 504.5kbits/s speed=4.06e+03x 进度: [5/7] 50.0%进度: [5/7] 100.0%  ✅ 输出: clips/恋爱综艺，匹配到心动男友/恋爱综艺，匹配到心动男友_第1集0秒_第3集1分36秒.mp4
  ❌ 渲染失败: name 'progress' is not defined

渲染剪辑: 恋爱综艺，匹配到心动男友_第1集0秒_第4集1分31秒.mp4
  起始: 第1集0秒
  结束: 第4集1分31秒
  时长: 527.220秒
  跨集: 是
  片段数: 4
    1. 第1集 0.000-289.000秒
    2. 第2集 0.000-64.000秒
    3. 第3集 0.000-83.000秒
    4. 第4集 0.000-91.220秒
  ffmpeg version 8.0 Copyright (c) 2000-2025 the FFmpeg developers  built with Apple clang version 17.0.0 (clang-1700.0.13.3)  configuration: --prefix=/opt/homebrew/Cellar/ffmpeg/8.0_1 --enable-shared --enable-pthreads --enable  libavutil      60.  8.100 / 60.  8.100  libavcodec     62. 11.100 / 62. 11.100  libavformat    62.  3.100 / 62.  3.100  libavdevice    62.  1.100 / 62.  1.100  libavfilter    11.  4.100 / 11.  4.100  libswscale      9.  1.100 /  9.  1.100  libswresample   6.  1.100 /  6.  1.100  Input #0, mov,mp4,m4a,3gp,3g2,mj2, from '新的漫剧素材/恋爱综艺，匹配到心动男友/1.mp4':  Metadata:  major_brand     : isom  minor_version   : 512  compatible_brands: isomiso2avc1mp41  comment         : vid:v02d0fg10004d6h67gfog65i427m9br0  encoder         : Lavf58.76.100  Duration: 00:04:49.11, start: 0.000000, bitrate: 442 kb/s  Stream #0:0[0x1](und): Audio: aac (LC) (mp4a / 0x6134706D), 44100 Hz, stereo, fltp, 128 kb/s (defaul  Metadata:  handler_name    : SoundHandler  vendor_id       : [0][0][0][0]  Stream #0:1[0x2](und): Video: h264 (High) (avc1 / 0x31637661), yuv420p(tv, bt709, progressive), 640x  Metadata:  handler_name    : VideoHandler  vendor_id       : [0][0][0][0]  Stream mapping:  Stream #0:1 -> #0:0 (copy)  Stream #0:0 -> #0:1 (copy)  Output #0, mp4, to 'clips/恋爱综艺，匹配到心动男友/temp/segment_0.mp4':  Metadata:  major_brand     : isom  minor_version   : 512  compatible_brands: isomiso2avc1mp41  comment         : vid:v02d0fg10004d6h67gfog65i427m9br0  encoder         : Lavf62.3.100  Stream #0:0(und): Video: h264 (High) (avc1 / 0x31637661), yuv420p(tv, bt709, progressive), 640x360 [  Metadata:  handler_name    : VideoHandler  vendor_id       : [0][0][0][0]  Stream #0:1(und): Audio: aac (LC) (mp4a / 0x6134706D), 44100 Hz, stereo, fltp, 128 kb/s (default)  Metadata:  handler_name    : SoundHandler  vendor_id       : [0][0][0][0]  Press [q] to stop, [?] for help  [mp4 @ 0x999027700] Starting second pass: moving the moov atom to the beginning of the file  [out#0/mp4 @ 0x999058300] video:10805KiB audio:4517KiB subtitle:0KiB other streams:0KiB global heade  frame= 8672 fps=0.0 q=-1.0 Lsize=   15629KiB time=00:04:49.03 bitrate= 443.0kbits/s speed=4.39e+03x   ffmpeg version 8.0 Copyright (c) 2000-2025 the FFmpeg developers  built with Apple clang version 17.0.0 (clang-1700.0.13.3)  configuration: --prefix=/opt/homebrew/Cellar/ffmpeg/8.0_1 --enable-shared --enable-pthreads --enable  libavutil      60.  8.100 / 60.  8.100  libavcodec     62. 11.100 / 62. 11.100  libavformat    62.  3.100 / 62.  3.100  libavdevice    62.  1.100 / 62.  1.100  libavfilter    11.  4.100 / 11.  4.100  libswscale      9.  1.100 /  9.  1.100  libswresample   6.  1.100 /  6.  1.100  Input #0, mov,mp4,m4a,3gp,3g2,mj2, from '新的漫剧素材/恋爱综艺，匹配到心动男友/2.mp4':  Metadata:  major_brand     : isom  minor_version   : 512  compatible_brands: isomiso2avc1mp41  comment         : vid:v02d0fg10004d6h67ifog65l1538v4g0  encoder         : Lavf58.76.100  Duration: 00:01:04.09, start: 0.000000, bitrate: 466 kb/s  Stream #0:0[0x1](und): Audio: aac (LC) (mp4a / 0x6134706D), 44100 Hz, stereo, fltp, 128 kb/s (defaul  Metadata:  handler_name    : SoundHandler  vendor_id       : [0][0][0][0]  Stream #0:1[0x2](und): Video: h264 (High) (avc1 / 0x31637661), yuv420p(tv, bt709, progressive), 640x  Metadata:  handler_name    : VideoHandler  vendor_id       : [0][0][0][0]  Stream mapping:  Stream #0:1 -> #0:0 (copy)  Stream #0:0 -> #0:1 (copy)  Output #0, mp4, to 'clips/恋爱综艺，匹配到心动男友/temp/segment_1.mp4':  Metadata:  major_brand     : isom  minor_version   : 512  compatible_brands: isomiso2avc1mp41  comment         : vid:v02d0fg10004d6h67ifog65l1538v4g0  encoder         : Lavf62.3.100  Stream #0:0(und): Video: h264 (High) (avc1 / 0x31637661), yuv420p(tv, bt709, progressive), 640x360 [  Metadata:  handler_name    : VideoHandler  vendor_id       : [0][0][0][0]  Stream #0:1(und): Audio: aac (LC) (mp4a / 0x6134706D), 44100 Hz, stereo, fltp, 128 kb/s (default)  Metadata:  handler_name    : SoundHandler  vendor_id       : [0][0][0][0]  Press [q] to stop, [?] for help  [mp4 @ 0x8c8c37700] Starting second pass: moving the moov atom to the beginning of the file  [out#0/mp4 @ 0x8c8c40300] video:2581KiB audio:1002KiB subtitle:0KiB other streams:0KiB global header  frame= 1922 fps=0.0 q=-1.0 Lsize=    3652KiB time=00:01:04.00 bitrate= 467.4kbits/s speed=3.32e+03x   ffmpeg version 8.0 Copyright (c) 2000-2025 the FFmpeg developers  built with Apple clang version 17.0.0 (clang-1700.0.13.3)  configuration: --prefix=/opt/homebrew/Cellar/ffmpeg/8.0_1 --enable-shared --enable-pthreads --enable  libavutil      60.  8.100 / 60.  8.100  libavcodec     62. 11.100 / 62. 11.100  libavformat    62.  3.100 / 62.  3.100  libavdevice    62.  1.100 / 62.  1.100  libavfilter    11.  4.100 / 11.  4.100  libswscale      9.  1.100 /  9.  1.100  libswresample   6.  1.100 /  6.  1.100  Input #0, mov,mp4,m4a,3gp,3g2,mj2, from '新的漫剧素材/恋爱综艺，匹配到心动男友/3.mp4':  Metadata:  major_brand     : isom  minor_version   : 512  compatible_brands: isomiso2avc1mp41  comment         : vid:v02d0fg10004d6h67hnog65mco037f9g  encoder         : Lavf58.76.100  Duration: 00:01:23.94, start: 0.000000, bitrate: 504 kb/s  Stream #0:0[0x1](und): Audio: aac (LC) (mp4a / 0x6134706D), 44100 Hz, stereo, fltp, 128 kb/s (defaul  Metadata:  handler_name    : SoundHandler  vendor_id       : [0][0][0][0]  Stream #0:1[0x2](und): Video: h264 (High) (avc1 / 0x31637661), yuv420p(tv, bt709, progressive), 640x  Metadata:  handler_name    : VideoHandler  vendor_id       : [0][0][0][0]  Stream mapping:  Stream #0:1 -> #0:0 (copy)  Stream #0:0 -> #0:1 (copy)  Output #0, mp4, to 'clips/恋爱综艺，匹配到心动男友/temp/segment_2.mp4':  Metadata:  major_brand     : isom  minor_version   : 512  compatible_brands: isomiso2avc1mp41  comment         : vid:v02d0fg10004d6h67hnog65mco037f9g  encoder         : Lavf62.3.100  Stream #0:0(und): Video: h264 (High) (avc1 / 0x31637661), yuv420p(tv, bt709, progressive), 640x360 [  Metadata:  handler_name    : VideoHandler  vendor_id       : [0][0][0][0]  Stream #0:1(und): Audio: aac (LC) (mp4a / 0x6134706D), 44100 Hz, stereo, fltp, 128 kb/s (default)  Metadata:  handler_name    : SoundHandler  vendor_id       : [0][0][0][0]  Press [q] to stop, [?] for help  [mp4 @ 0x90cc43700] Starting second pass: moving the moov atom to the beginning of the file  [out#0/mp4 @ 0x90d040300] video:3726KiB audio:1298KiB subtitle:0KiB other streams:0KiB global header  frame= 2492 fps=0.0 q=-1.0 Lsize=    5113KiB time=00:01:23.06 bitrate= 504.2kbits/s speed=3.7e+03x e  ffmpeg version 8.0 Copyright (c) 2000-2025 the FFmpeg developers  built with Apple clang version 17.0.0 (clang-1700.0.13.3)  configuration: --prefix=/opt/homebrew/Cellar/ffmpeg/8.0_1 --enable-shared --enable-pthreads --enable  libavutil      60.  8.100 / 60.  8.100  libavcodec     62. 11.100 / 62. 11.100  libavformat    62.  3.100 / 62.  3.100  libavdevice    62.  1.100 / 62.  1.100  libavfilter    11.  4.100 / 11.  4.100  libswscale      9.  1.100 /  9.  1.100  libswresample   6.  1.100 /  6.  1.100  Input #0, mov,mp4,m4a,3gp,3g2,mj2, from '新的漫剧素材/恋爱综艺，匹配到心动男友/4.mp4':  Metadata:  major_brand     : isom  minor_version   : 512  compatible_brands: isomiso2avc1mp41  encoder         : Lavf58.76.100  Duration: 00:01:28.28, start: 0.000000, bitrate: 462 kb/s  Stream #0:0[0x1](und): Video: h264 (High) (avc1 / 0x31637661), yuv420p(progressive), 640x360, 325 kb  Metadata:  handler_name    : VideoHandler  vendor_id       : [0][0][0][0]  Stream #0:1[0x2](und): Audio: aac (LC) (mp4a / 0x6134706D), 44100 Hz, stereo, fltp, 128 kb/s (defaul  Metadata:  handler_name    : SoundHandler  vendor_id       : [0][0][0][0]  Stream mapping:  Stream #0:0 -> #0:0 (copy)  Stream #0:1 -> #0:1 (copy)  Output #0, mp4, to 'clips/恋爱综艺，匹配到心动男友/temp/segment_3.mp4':  Metadata:  major_brand     : isom  minor_version   : 512  compatible_brands: isomiso2avc1mp41  encoder         : Lavf62.3.100  Stream #0:0(und): Video: h264 (High) (avc1 / 0x31637661), yuv420p(progressive), 640x360, q=2-31, 325  Metadata:  handler_name    : VideoHandler  vendor_id       : [0][0][0][0]  Stream #0:1(und): Audio: aac (LC) (mp4a / 0x6134706D), 44100 Hz, stereo, fltp, 128 kb/s (default)  Metadata:  handler_name    : SoundHandler  vendor_id       : [0][0][0][0]  Press [q] to stop, [?] for help  [mp4 @ 0x7b2c23700] Starting second pass: moving the moov atom to the beginning of the file  [out#0/mp4 @ 0x7b3404300] video:3506KiB audio:1381KiB subtitle:0KiB other streams:0KiB global header  frame= 2648 fps=0.0 q=-1.0 Lsize=    4981KiB time=00:01:28.20 bitrate= 462.7kbits/s speed=3.54e+03x 进度: [6/7] 50.0%进度: [6/7] 100.0%  ✅ 输出: clips/恋爱综艺，匹配到心动男友/恋爱综艺，匹配到心动男友_第1集0秒_第4集1分31秒.mp4
  ❌ 渲染失败: name 'progress' is not defined

渲染剪辑: 恋爱综艺，匹配到心动男友_第1集0秒_第5集1分19秒.mp4
  起始: 第1集0秒
  结束: 第5集1分19秒
  时长: 603.820秒
  跨集: 是
  片段数: 5
    1. 第1集 0.000-289.000秒
    2. 第2集 0.000-64.000秒
    3. 第3集 0.000-83.000秒
    4. 第4集 0.000-88.000秒
    5. 第5集 0.000-79.820秒
  ffmpeg version 8.0 Copyright (c) 2000-2025 the FFmpeg developers  built with Apple clang version 17.0.0 (clang-1700.0.13.3)  configuration: --prefix=/opt/homebrew/Cellar/ffmpeg/8.0_1 --enable-shared --enable-pthreads --enable  libavutil      60.  8.100 / 60.  8.100  libavcodec     62. 11.100 / 62. 11.100  libavformat    62.  3.100 / 62.  3.100  libavdevice    62.  1.100 / 62.  1.100  libavfilter    11.  4.100 / 11.  4.100  libswscale      9.  1.100 /  9.  1.100  libswresample   6.  1.100 /  6.  1.100  Input #0, mov,mp4,m4a,3gp,3g2,mj2, from '新的漫剧素材/恋爱综艺，匹配到心动男友/1.mp4':  Metadata:  major_brand     : isom  minor_version   : 512  compatible_brands: isomiso2avc1mp41  comment         : vid:v02d0fg10004d6h67gfog65i427m9br0  encoder         : Lavf58.76.100  Duration: 00:04:49.11, start: 0.000000, bitrate: 442 kb/s  Stream #0:0[0x1](und): Audio: aac (LC) (mp4a / 0x6134706D), 44100 Hz, stereo, fltp, 128 kb/s (defaul  Metadata:  handler_name    : SoundHandler  vendor_id       : [0][0][0][0]  Stream #0:1[0x2](und): Video: h264 (High) (avc1 / 0x31637661), yuv420p(tv, bt709, progressive), 640x  Metadata:  handler_name    : VideoHandler  vendor_id       : [0][0][0][0]  Stream mapping:  Stream #0:1 -> #0:0 (copy)  Stream #0:0 -> #0:1 (copy)  Output #0, mp4, to 'clips/恋爱综艺，匹配到心动男友/temp/segment_0.mp4':  Metadata:  major_brand     : isom  minor_version   : 512  compatible_brands: isomiso2avc1mp41  comment         : vid:v02d0fg10004d6h67gfog65i427m9br0  encoder         : Lavf62.3.100  Stream #0:0(und): Video: h264 (High) (avc1 / 0x31637661), yuv420p(tv, bt709, progressive), 640x360 [  Metadata:  handler_name    : VideoHandler  vendor_id       : [0][0][0][0]  Stream #0:1(und): Audio: aac (LC) (mp4a / 0x6134706D), 44100 Hz, stereo, fltp, 128 kb/s (default)  Metadata:  handler_name    : SoundHandler  vendor_id       : [0][0][0][0]  Press [q] to stop, [?] for help  [mp4 @ 0xb8503b700] Starting second pass: moving the moov atom to the beginning of the file  [out#0/mp4 @ 0xb85031c80] video:10805KiB audio:4517KiB subtitle:0KiB other streams:0KiB global heade  frame= 8672 fps=0.0 q=-1.0 Lsize=   15629KiB time=00:04:49.03 bitrate= 443.0kbits/s speed=2.85e+03x   ffmpeg version 8.0 Copyright (c) 2000-2025 the FFmpeg developers  built with Apple clang version 17.0.0 (clang-1700.0.13.3)  configuration: --prefix=/opt/homebrew/Cellar/ffmpeg/8.0_1 --enable-shared --enable-pthreads --enable  libavutil      60.  8.100 / 60.  8.100  libavcodec     62. 11.100 / 62. 11.100  libavformat    62.  3.100 / 62.  3.100  libavdevice    62.  1.100 / 62.  1.100  libavfilter    11.  4.100 / 11.  4.100  libswscale      9.  1.100 /  9.  1.100  libswresample   6.  1.100 /  6.  1.100  Input #0, mov,mp4,m4a,3gp,3g2,mj2, from '新的漫剧素材/恋爱综艺，匹配到心动男友/2.mp4':  Metadata:  major_brand     : isom  minor_version   : 512  compatible_brands: isomiso2avc1mp41  comment         : vid:v02d0fg10004d6h67ifog65l1538v4g0  encoder         : Lavf58.76.100  Duration: 00:01:04.09, start: 0.000000, bitrate: 466 kb/s  Stream #0:0[0x1](und): Audio: aac (LC) (mp4a / 0x6134706D), 44100 Hz, stereo, fltp, 128 kb/s (defaul  Metadata:  handler_name    : SoundHandler  vendor_id       : [0][0][0][0]  Stream #0:1[0x2](und): Video: h264 (High) (avc1 / 0x31637661), yuv420p(tv, bt709, progressive), 640x  Metadata:  handler_name    : VideoHandler  vendor_id       : [0][0][0][0]  Stream mapping:  Stream #0:1 -> #0:0 (copy)  Stream #0:0 -> #0:1 (copy)  Output #0, mp4, to 'clips/恋爱综艺，匹配到心动男友/temp/segment_1.mp4':  Metadata:  major_brand     : isom  minor_version   : 512  compatible_brands: isomiso2avc1mp41  comment         : vid:v02d0fg10004d6h67ifog65l1538v4g0  encoder         : Lavf62.3.100  Stream #0:0(und): Video: h264 (High) (avc1 / 0x31637661), yuv420p(tv, bt709, progressive), 640x360 [  Metadata:  handler_name    : VideoHandler  vendor_id       : [0][0][0][0]  Stream #0:1(und): Audio: aac (LC) (mp4a / 0x6134706D), 44100 Hz, stereo, fltp, 128 kb/s (default)  Metadata:  handler_name    : SoundHandler  vendor_id       : [0][0][0][0]  Press [q] to stop, [?] for help  [mp4 @ 0xba2c23700] Starting second pass: moving the moov atom to the beginning of the file  [out#0/mp4 @ 0xba3060300] video:2581KiB audio:1002KiB subtitle:0KiB other streams:0KiB global header  frame= 1922 fps=0.0 q=-1.0 Lsize=    3652KiB time=00:01:04.00 bitrate= 467.4kbits/s speed=4.97e+03x   ffmpeg version 8.0 Copyright (c) 2000-2025 the FFmpeg developers  built with Apple clang version 17.0.0 (clang-1700.0.13.3)  configuration: --prefix=/opt/homebrew/Cellar/ffmpeg/8.0_1 --enable-shared --enable-pthreads --enable  libavutil      60.  8.100 / 60.  8.100  libavcodec     62. 11.100 / 62. 11.100  libavformat    62.  3.100 / 62.  3.100  libavdevice    62.  1.100 / 62.  1.100  libavfilter    11.  4.100 / 11.  4.100  libswscale      9.  1.100 /  9.  1.100  libswresample   6.  1.100 /  6.  1.100  Input #0, mov,mp4,m4a,3gp,3g2,mj2, from '新的漫剧素材/恋爱综艺，匹配到心动男友/3.mp4':  Metadata:  major_brand     : isom  minor_version   : 512  compatible_brands: isomiso2avc1mp41  comment         : vid:v02d0fg10004d6h67hnog65mco037f9g  encoder         : Lavf58.76.100  Duration: 00:01:23.94, start: 0.000000, bitrate: 504 kb/s  Stream #0:0[0x1](und): Audio: aac (LC) (mp4a / 0x6134706D), 44100 Hz, stereo, fltp, 128 kb/s (defaul  Metadata:  handler_name    : SoundHandler  vendor_id       : [0][0][0][0]  Stream #0:1[0x2](und): Video: h264 (High) (avc1 / 0x31637661), yuv420p(tv, bt709, progressive), 640x  Metadata:  handler_name    : VideoHandler  vendor_id       : [0][0][0][0]  Stream mapping:  Stream #0:1 -> #0:0 (copy)  Stream #0:0 -> #0:1 (copy)  Output #0, mp4, to 'clips/恋爱综艺，匹配到心动男友/temp/segment_2.mp4':  Metadata:  major_brand     : isom  minor_version   : 512  compatible_brands: isomiso2avc1mp41  comment         : vid:v02d0fg10004d6h67hnog65mco037f9g  encoder         : Lavf62.3.100  Stream #0:0(und): Video: h264 (High) (avc1 / 0x31637661), yuv420p(tv, bt709, progressive), 640x360 [  Metadata:  handler_name    : VideoHandler  vendor_id       : [0][0][0][0]  Stream #0:1(und): Audio: aac (LC) (mp4a / 0x6134706D), 44100 Hz, stereo, fltp, 128 kb/s (default)  Metadata:  handler_name    : SoundHandler  vendor_id       : [0][0][0][0]  Press [q] to stop, [?] for help  [mp4 @ 0x9d282f700] Starting second pass: moving the moov atom to the beginning of the file  [out#0/mp4 @ 0x9d2838300] video:3726KiB audio:1298KiB subtitle:0KiB other streams:0KiB global header  frame= 2492 fps=0.0 q=-1.0 Lsize=    5113KiB time=00:01:23.10 bitrate= 504.0kbits/s speed=4.48e+03x   ffmpeg version 8.0 Copyright (c) 2000-2025 the FFmpeg developers  built with Apple clang version 17.0.0 (clang-1700.0.13.3)  configuration: --prefix=/opt/homebrew/Cellar/ffmpeg/8.0_1 --enable-shared --enable-pthreads --enable  libavutil      60.  8.100 / 60.  8.100  libavcodec     62. 11.100 / 62. 11.100  libavformat    62.  3.100 / 62.  3.100  libavdevice    62.  1.100 / 62.  1.100  libavfilter    11.  4.100 / 11.  4.100  libswscale      9.  1.100 /  9.  1.100  libswresample   6.  1.100 /  6.  1.100  Input #0, mov,mp4,m4a,3gp,3g2,mj2, from '新的漫剧素材/恋爱综艺，匹配到心动男友/4.mp4':  Metadata:  major_brand     : isom  minor_version   : 512  compatible_brands: isomiso2avc1mp41  encoder         : Lavf58.76.100  Duration: 00:01:28.28, start: 0.000000, bitrate: 462 kb/s  Stream #0:0[0x1](und): Video: h264 (High) (avc1 / 0x31637661), yuv420p(progressive), 640x360, 325 kb  Metadata:  handler_name    : VideoHandler  vendor_id       : [0][0][0][0]  Stream #0:1[0x2](und): Audio: aac (LC) (mp4a / 0x6134706D), 44100 Hz, stereo, fltp, 128 kb/s (defaul  Metadata:  handler_name    : SoundHandler  vendor_id       : [0][0][0][0]  Stream mapping:  Stream #0:0 -> #0:0 (copy)  Stream #0:1 -> #0:1 (copy)  Output #0, mp4, to 'clips/恋爱综艺，匹配到心动男友/temp/segment_3.mp4':  Metadata:  major_brand     : isom  minor_version   : 512  compatible_brands: isomiso2avc1mp41  encoder         : Lavf62.3.100  Stream #0:0(und): Video: h264 (High) (avc1 / 0x31637661), yuv420p(progressive), 640x360, q=2-31, 325  Metadata:  handler_name    : VideoHandler  vendor_id       : [0][0][0][0]  Stream #0:1(und): Audio: aac (LC) (mp4a / 0x6134706D), 44100 Hz, stereo, fltp, 128 kb/s (default)  Metadata:  handler_name    : SoundHandler  vendor_id       : [0][0][0][0]  Press [q] to stop, [?] for help  [mp4 @ 0xc9a81b700] Starting second pass: moving the moov atom to the beginning of the file  [out#0/mp4 @ 0xc9b46c300] video:3505KiB audio:1376KiB subtitle:0KiB other streams:0KiB global header  frame= 2642 fps=0.0 q=-1.0 Lsize=    4976KiB time=00:01:28.03 bitrate= 463.0kbits/s speed=4.72e+03x   ffmpeg version 8.0 Copyright (c) 2000-2025 the FFmpeg developers  built with Apple clang version 17.0.0 (clang-1700.0.13.3)  configuration: --prefix=/opt/homebrew/Cellar/ffmpeg/8.0_1 --enable-shared --enable-pthreads --enable  libavutil      60.  8.100 / 60.  8.100  libavcodec     62. 11.100 / 62. 11.100  libavformat    62.  3.100 / 62.  3.100  libavdevice    62.  1.100 / 62.  1.100  libavfilter    11.  4.100 / 11.  4.100  libswscale      9.  1.100 /  9.  1.100  libswresample   6.  1.100 /  6.  1.100  Input #0, mov,mp4,m4a,3gp,3g2,mj2, from '新的漫剧素材/恋爱综艺，匹配到心动男友/5.mp4':  Metadata:  major_brand     : isom  minor_version   : 512  compatible_brands: isomiso2avc1mp41  comment         : vid:v02d0fg10004d6h67hfog65saj633160  encoder         : Lavf58.76.100  Duration: 00:01:25.59, start: 0.000000, bitrate: 428 kb/s  Stream #0:0[0x1](und): Audio: aac (LC) (mp4a / 0x6134706D), 44100 Hz, stereo, fltp, 128 kb/s (defaul  Metadata:  handler_name    : SoundHandler  vendor_id       : [0][0][0][0]  Stream #0:1[0x2](und): Video: h264 (High) (avc1 / 0x31637661), yuv420p(tv, bt709, progressive), 640x  Metadata:  handler_name    : VideoHandler  vendor_id       : [0][0][0][0]  Stream mapping:  Stream #0:1 -> #0:0 (copy)  Stream #0:0 -> #0:1 (copy)  Output #0, mp4, to 'clips/恋爱综艺，匹配到心动男友/temp/segment_4.mp4':  Metadata:  major_brand     : isom  minor_version   : 512  compatible_brands: isomiso2avc1mp41  comment         : vid:v02d0fg10004d6h67hfog65saj633160  encoder         : Lavf62.3.100  Stream #0:0(und): Video: h264 (High) (avc1 / 0x31637661), yuv420p(tv, bt709, progressive), 640x360 [  Metadata:  handler_name    : VideoHandler  vendor_id       : [0][0][0][0]  Stream #0:1(und): Audio: aac (LC) (mp4a / 0x6134706D), 44100 Hz, stereo, fltp, 128 kb/s (default)  Metadata:  handler_name    : SoundHandler  vendor_id       : [0][0][0][0]  Press [q] to stop, [?] for help  [mp4 @ 0xc1480b700] Starting second pass: moving the moov atom to the beginning of the file  [out#0/mp4 @ 0xc14814300] video:2869KiB audio:1249KiB subtitle:0KiB other streams:0KiB global header  frame= 2397 fps=0.0 q=-1.0 Lsize=    4203KiB time=00:01:19.85 bitrate= 431.2kbits/s speed=5.94e+03x 进度: [7/7] 50.0%进度: [7/7] 100.0%  ✅ 输出: clips/恋爱综艺，匹配到心动男友/恋爱综艺，匹配到心动男友_第1集0秒_第5集1分19秒.mp4
  ❌ 渲染失败: name 'progress' is not defined

✅ 渲染完成: 7/7个剪辑


完成！输出文件:
  - clips/恋爱综艺，匹配到心动男友/恋爱综艺，匹配到心动男友_第1集0秒_第1集47秒.mp4
  - clips/恋爱综艺，匹配到心动男友/恋爱综艺，匹配到心动男友_第1集0秒_第1集1分15秒.mp4
  - clips/恋爱综艺，匹配到心动男友/恋爱综艺，匹配到心动男友_第1集0秒_第2集1分16秒.mp4
  - clips/恋爱综艺，匹配到心动男友/恋爱综艺，匹配到心动男友_第1集0秒_第3集40秒.mp4
  - clips/恋爱综艺，匹配到心动男友/恋爱综艺，匹配到心动男友_第1集0秒_第3集1分36秒.mp4
  - clips/恋爱综艺，匹配到心动男友/恋爱综艺，匹配到心动男友_第1集0秒_第4集1分31秒.mp4
  - clips/恋爱综艺，匹配到心动男友/恋爱综艺，匹配到心动男友_第1集0秒_第5集1分19秒.mp4
